<mxfile host="65bd71144e">
    <diagram id="qQhh7YkeFXGIbw1MGGcC" name="workflow">
        <mxGraphModel dx="2029" dy="1138" grid="1" gridSize="10" guides="1" tooltips="1" connect="1" arrows="1" fold="1" page="0" pageScale="1" pageWidth="850" pageHeight="1100" background="none" math="0" shadow="0">
            <root>
                <mxCell id="0"/>
                <mxCell id="1" parent="0"/>
                <mxCell id="cRHDMaUvguuuHIwaKFNs-2" value="" style="rounded=0;labelBorderColor=none;fontColor=#000000;strokeColor=none;fontStyle=1" vertex="1" parent="1">
                    <mxGeometry x="-27.5" y="200" width="1387.5" height="290" as="geometry"/>
                </mxCell>
                <mxCell id="OjfGwU_Z8tsYU6pwOm5--10" value="" style="edgeStyle=none;html=1;labelBackgroundColor=none;fontColor=#000000;fontStyle=1;strokeColor=#0066CC;" parent="1" source="OjfGwU_Z8tsYU6pwOm5--1" target="OjfGwU_Z8tsYU6pwOm5--2" edge="1">
                    <mxGeometry relative="1" as="geometry"/>
                </mxCell>
                <mxCell id="OjfGwU_Z8tsYU6pwOm5--1" value="Question" style="rounded=1;whiteSpace=wrap;html=1;fontSize=20;labelBackgroundColor=none;fontStyle=3;" parent="1" vertex="1">
                    <mxGeometry x="-20" y="260" width="120" height="60" as="geometry"/>
                </mxCell>
                <mxCell id="OjfGwU_Z8tsYU6pwOm5--11" value="" style="edgeStyle=none;html=1;labelBackgroundColor=none;fontColor=#000000;fontStyle=1;strokeColor=#0066CC;" parent="1" source="OjfGwU_Z8tsYU6pwOm5--2" target="OjfGwU_Z8tsYU6pwOm5--6" edge="1">
                    <mxGeometry relative="1" as="geometry"/>
                </mxCell>
                <mxCell id="OjfGwU_Z8tsYU6pwOm5--2" value="Retrieve&lt;br&gt;Documents" style="rounded=1;fillColor=#dae8fc;strokeColor=#6c8ebf;fontSize=20;labelBackgroundColor=none;fontStyle=1;whiteSpace=wrap;html=1;fontColor=#0066CC;" parent="1" vertex="1">
                    <mxGeometry x="160" y="260" width="140" height="60" as="geometry"/>
                </mxCell>
                <mxCell id="OjfGwU_Z8tsYU6pwOm5--14" value="" style="edgeStyle=none;html=1;labelBackgroundColor=none;fontColor=#000000;fontStyle=1;strokeColor=#0066CC;" parent="1" source="OjfGwU_Z8tsYU6pwOm5--4" target="OjfGwU_Z8tsYU6pwOm5--5" edge="1">
                    <mxGeometry relative="1" as="geometry"/>
                </mxCell>
                <mxCell id="OjfGwU_Z8tsYU6pwOm5--21" value="Yes" style="edgeLabel;align=center;verticalAlign=middle;resizable=0;points=[];fontSize=18;labelBackgroundColor=default;fontColor=#0066CC;fontStyle=1" parent="OjfGwU_Z8tsYU6pwOm5--14" vertex="1" connectable="0">
                    <mxGeometry x="-0.3299" y="-1" relative="1" as="geometry">
                        <mxPoint x="7" y="-18" as="offset"/>
                    </mxGeometry>
                </mxCell>
                <mxCell id="OjfGwU_Z8tsYU6pwOm5--4" value="Documents Enough?" style="rhombus;whiteSpace=wrap;html=1;fillColor=#dae8fc;strokeColor=#6c8ebf;fontSize=20;labelBackgroundColor=none;fontColor=#0066CC;fontStyle=1" parent="1" vertex="1">
                    <mxGeometry x="540" y="207.5" width="165" height="165" as="geometry"/>
                </mxCell>
                <mxCell id="OjfGwU_Z8tsYU6pwOm5--17" value="" style="edgeStyle=none;html=1;labelBackgroundColor=none;fontColor=#000000;fontStyle=1;strokeColor=#006600;" parent="1" source="OjfGwU_Z8tsYU6pwOm5--5" target="OjfGwU_Z8tsYU6pwOm5--9" edge="1">
                    <mxGeometry relative="1" as="geometry"/>
                </mxCell>
                <mxCell id="OjfGwU_Z8tsYU6pwOm5--5" value="Answer Generation" style="rounded=1;whiteSpace=wrap;html=1;fillColor=#d5e8d4;strokeColor=#82b366;fontSize=20;labelBackgroundColor=none;fontStyle=1;fontColor=#006600;" parent="1" vertex="1">
                    <mxGeometry x="780" y="260" width="130" height="60" as="geometry"/>
                </mxCell>
                <mxCell id="OjfGwU_Z8tsYU6pwOm5--12" value="" style="edgeStyle=none;html=1;labelBackgroundColor=none;fontColor=#000000;fontStyle=1;strokeColor=#0066CC;" parent="1" source="OjfGwU_Z8tsYU6pwOm5--6" target="OjfGwU_Z8tsYU6pwOm5--4" edge="1">
                    <mxGeometry relative="1" as="geometry"/>
                </mxCell>
                <mxCell id="OjfGwU_Z8tsYU6pwOm5--6" value="Related Guard" style="rounded=1;whiteSpace=wrap;html=1;fillColor=#dae8fc;strokeColor=#6c8ebf;fontSize=20;labelBackgroundColor=none;fontColor=#0066CC;fontStyle=1" parent="1" vertex="1">
                    <mxGeometry x="360" y="260" width="120" height="60" as="geometry"/>
                </mxCell>
                <mxCell id="OjfGwU_Z8tsYU6pwOm5--8" value="Final Answer" style="rounded=1;whiteSpace=wrap;html=1;fillColor=#ffe6cc;strokeColor=#d79b00;fontSize=20;labelBackgroundColor=none;fontStyle=3;fontColor=#CC6600;" parent="1" vertex="1">
                    <mxGeometry x="1210" y="260" width="140" height="60" as="geometry"/>
                </mxCell>
                <mxCell id="OjfGwU_Z8tsYU6pwOm5--18" style="edgeStyle=orthogonalEdgeStyle;html=1;exitX=0.5;exitY=1;exitDx=0;exitDy=0;labelBackgroundColor=none;fontColor=#000000;fontStyle=1;strokeColor=#006600;" parent="1" source="OjfGwU_Z8tsYU6pwOm5--9" target="OjfGwU_Z8tsYU6pwOm5--5" edge="1">
                    <mxGeometry relative="1" as="geometry">
                        <Array as="points">
                            <mxPoint x="1052" y="450"/>
                            <mxPoint x="845" y="450"/>
                        </Array>
                    </mxGeometry>
                </mxCell>
                <mxCell id="OjfGwU_Z8tsYU6pwOm5--23" value="No" style="edgeLabel;html=1;align=center;verticalAlign=middle;resizable=0;points=[];fontSize=18;labelBackgroundColor=default;fontColor=#009900;fontStyle=1" parent="OjfGwU_Z8tsYU6pwOm5--18" vertex="1" connectable="0">
                    <mxGeometry x="-0.8119" y="1" relative="1" as="geometry">
                        <mxPoint x="-1" y="-11" as="offset"/>
                    </mxGeometry>
                </mxCell>
                <mxCell id="OjfGwU_Z8tsYU6pwOm5--19" value="" style="edgeStyle=none;html=1;labelBackgroundColor=none;fontColor=#000000;fontStyle=1;strokeColor=#006600;" parent="1" source="OjfGwU_Z8tsYU6pwOm5--9" target="OjfGwU_Z8tsYU6pwOm5--8" edge="1">
                    <mxGeometry relative="1" as="geometry"/>
                </mxCell>
                <mxCell id="OjfGwU_Z8tsYU6pwOm5--22" value="Yes" style="edgeLabel;html=1;align=center;verticalAlign=middle;resizable=0;points=[];fontSize=18;labelBackgroundColor=default;fontColor=#009900;fontStyle=1" parent="OjfGwU_Z8tsYU6pwOm5--19" vertex="1" connectable="0">
                    <mxGeometry x="-0.3006" y="-2" relative="1" as="geometry">
                        <mxPoint x="4" y="-18" as="offset"/>
                    </mxGeometry>
                </mxCell>
                <mxCell id="OjfGwU_Z8tsYU6pwOm5--9" value="Answer&#xa;Â Useful?" style="rhombus;fontSize=20;labelBackgroundColor=none;fontStyle=1;fillColor=#d5e8d4;strokeColor=#82b366;fontColor=#006600;" parent="1" vertex="1">
                    <mxGeometry x="970" y="207.5" width="165" height="165" as="geometry"/>
                </mxCell>
                <mxCell id="OjfGwU_Z8tsYU6pwOm5--3" value="Web Search" style="rounded=1;whiteSpace=wrap;html=1;fillColor=#dae8fc;strokeColor=#6c8ebf;fontSize=20;labelBackgroundColor=none;fontColor=#0066CC;fontStyle=1" parent="1" vertex="1">
                    <mxGeometry x="556.25" y="420" width="132.5" height="60" as="geometry"/>
                </mxCell>
                <mxCell id="OjfGwU_Z8tsYU6pwOm5--15" style="edgeStyle=orthogonalEdgeStyle;html=1;labelBackgroundColor=none;fontColor=#000000;fontStyle=1;strokeColor=#0066CC;" parent="1" source="OjfGwU_Z8tsYU6pwOm5--3" target="OjfGwU_Z8tsYU6pwOm5--5" edge="1">
                    <mxGeometry relative="1" as="geometry">
                        <Array as="points">
                            <mxPoint x="845" y="450"/>
                        </Array>
                    </mxGeometry>
                </mxCell>
                <mxCell id="OjfGwU_Z8tsYU6pwOm5--13" value="" style="edgeStyle=none;html=1;labelBackgroundColor=none;fontColor=#000000;fontStyle=1;strokeColor=#0066CC;" parent="1" source="OjfGwU_Z8tsYU6pwOm5--4" target="OjfGwU_Z8tsYU6pwOm5--3" edge="1">
                    <mxGeometry relative="1" as="geometry"/>
                </mxCell>
                <mxCell id="OjfGwU_Z8tsYU6pwOm5--20" value="No" style="edgeLabel;html=1;align=center;verticalAlign=middle;resizable=0;points=[];fontSize=18;labelBackgroundColor=default;fontColor=#0066CC;fontStyle=1" parent="OjfGwU_Z8tsYU6pwOm5--13" vertex="1" connectable="0">
                    <mxGeometry x="-0.1621" relative="1" as="geometry">
                        <mxPoint y="-2" as="offset"/>
                    </mxGeometry>
                </mxCell>
            </root>
        </mxGraphModel>
    </diagram>
</mxfile>